<?xml version="1.0" ?>
<!-- Uploaded to: SVG Repo, www.svgrepo.com, Generator: SVG Repo Mixer Tools -->
<svg width="800px" height="800px" viewBox="0 0 64 64" xmlns="http://www.w3.org/2000/svg">
<g id="flat">
<polyline points="10 24.655 3 29 3 61 61 61 61 29 54 24.655" style="fill:#729c22"/>
<polygon points="46 3 10 3 10 56 54 56 54 11 46 3" style="fill:#dd4a43"/>
<path d="M46.9,3.9C40.945,27.416,20.812,44.077,10,51.56V56H54V11Z" style="fill:#d13e37"/>
<polygon points="61 61 3 61 3 29 32 49 61 29 61 61" style="fill:#7ea82d"/>
<polygon points="42.268 25.617 38.13 27.384 34 25 38.13 22.616 42.268 24.383 43.053 22.544 40.294 21.366 42.892 19.866 41.892 18.134 39.294 19.634 39.653 16.656 37.667 16.417 37.129 20.884 33 23.268 33 18.5 36.6 15.8 35.4 14.2 33 16 33 13 31 13 31 16 28.6 14.2 27.4 15.8 31 18.5 31 23.268 26.871 20.884 26.333 16.417 24.347 16.656 24.706 19.634 22.108 18.134 21.108 19.866 23.706 21.366 20.947 22.544 21.732 24.383 25.87 22.616 30 25 25.87 27.384 21.732 25.617 20.947 27.456 23.706 28.634 21.108 30.134 22.108 31.866 24.706 30.366 24.347 33.344 26.333 33.583 26.871 29.116 31 26.732 31 31.5 27.4 34.2 28.6 35.8 31 34 31 37 33 37 33 34 35.4 35.8 36.6 34.2 33 31.5 33 26.732 37.129 29.116 37.667 33.583 39.653 33.344 39.294 30.366 41.892 31.866 42.892 30.134 40.294 28.634 43.053 27.456 42.268 25.617" style="fill:#ebebe8"/>
<polygon points="46 11 46 3 54 11 46 11" style="fill:#7ea82d"/>
<rect height="2" style="fill:#97bf49" width="2" x="6" y="35"/>
<rect height="10" style="fill:#97bf49" width="2" x="6" y="39"/>
<polygon points="21.012 41.422 3 59.58 3 61 4.408 61 22.684 42.576 21.012 41.422" style="fill:#729c22"/>
<polygon points="42.988 41.422 41.316 42.576 59.592 61 61 61 61 59.58 42.988 41.422" style="fill:#729c22"/>
</g>
</svg>